<svg width="319" height="136" viewBox="0 0 319 136" fill="none" xmlns="http://www.w3.org/2000/svg">
<g clip-path="url(#clip0_401_1782)">
<path d="M132.101 74.2656L80.2896 18.1482C77.385 15.002 73.0512 13.6119 68.8588 14.4665L62.7099 15.7278L40.0525 20.3666L39.6123 20.4552C39.389 20.5004 39.1704 20.5516 38.9541 20.6095C38.8407 20.6399 38.7251 20.6745 38.609 20.7094C36.1996 21.4177 34.0998 22.8416 32.5614 24.7523C31.5659 25.9837 30.8018 27.418 30.3399 28.9923L21.8869 57.8452C20.6822 61.9638 21.7206 66.416 24.6348 69.5709L76.426 125.667C79.0707 128.53 82.6298 130.039 86.235 130.166C89.1755 130.273 92.1493 129.458 94.6867 127.703C95.2272 127.33 95.749 126.914 96.2487 126.456L100.87 122.188L131.308 94.086C137.001 88.8307 137.355 79.9556 132.101 74.2656ZM52.9706 50.9224C52.8533 51.1158 52.7371 51.3018 52.6127 51.4822C52.5605 51.5625 52.5017 51.6445 52.4443 51.7188C52.2569 51.9678 52.0558 52.2056 51.8464 52.4276C51.7754 52.5055 51.7066 52.5792 51.6326 52.6468C51.5616 52.7247 51.485 52.7969 51.4103 52.861C48.8617 55.193 45.002 55.7229 41.8487 53.9025C37.9498 51.6487 36.617 46.6747 38.8685 42.7803C40.9169 39.2274 45.2335 37.8057 48.9374 39.2909C49.1848 39.3902 49.436 39.5033 49.6841 39.632C49.7843 39.6899 49.886 39.7399 49.9908 39.8004C53.8842 42.048 55.2169 47.022 52.9706 50.9224Z" fill="#E8E8E8"/>
<path d="M76.4261 125.667C79.0708 128.53 82.6299 130.039 86.2351 130.166C89.1756 130.273 92.1493 129.458 94.6867 127.703C95.2272 127.33 95.7491 126.914 96.2488 126.456L100.87 122.188L131.308 94.086C137.001 88.8309 137.355 79.9558 132.101 74.2657L107.897 48.0498L77.9054 30.7342C76.8055 29.9545 75.5713 29.348 74.238 28.9615L68.2058 27.2151L45.5614 20.6615C43.7039 20.1241 41.785 20.0482 39.9497 20.387L39.6434 20.4487C39.5489 20.4686 39.4548 20.4919 39.3606 20.5141C39.2414 20.5411 39.121 20.567 39.0038 20.5978C38.7929 20.6544 38.5844 20.7196 38.3762 20.7875C38.2918 20.8142 38.2084 20.8434 38.125 20.8718C36.3604 21.4901 34.7295 22.5115 33.382 23.9043L32.5575 24.7569C31.5639 25.9873 30.8011 27.4198 30.3396 28.9921L21.8867 57.845C20.682 61.9636 21.7204 66.4158 24.6345 69.5707L76.4261 125.667ZM38.8682 42.7801C40.9167 39.2272 45.2332 37.8055 48.9372 39.2907C49.1846 39.3899 49.4357 39.5031 49.6839 39.6318C49.7841 39.6897 49.8858 39.7397 49.9905 39.8002C53.8843 42.0482 55.217 47.0217 52.9707 50.9224C52.8534 51.1158 52.7372 51.3018 52.6128 51.4822C52.5606 51.5625 52.5018 51.6445 52.4444 51.7187C52.257 51.9678 52.0559 52.2056 51.8464 52.4276C51.7755 52.5054 51.7067 52.5792 51.6327 52.6468C51.5617 52.7247 51.4851 52.7969 51.4104 52.8609C48.8618 55.193 45.002 55.7228 41.8488 53.9025C37.9498 51.6487 36.6171 46.6747 38.8682 42.7801Z" fill="url(#paint0_linear_401_1782)"/>
<path d="M80.548 34.519L75.1733 31.2709L54.9967 19.0801C51.1239 16.7413 46.2741 16.733 42.3934 19.0602L16.6099 34.527C12.9294 36.7335 10.6748 40.7105 10.6748 45.0038V121.354C10.6748 129.1 16.9544 135.379 24.7038 135.379H72.422C80.1676 135.379 86.447 129.1 86.447 121.354V44.9756C86.4473 40.6943 84.2083 36.7335 80.548 34.519ZM42.8059 50.2262C39.6258 47.0422 39.6258 41.892 42.8059 38.7122C45.7054 35.8126 50.2428 35.5565 53.4349 37.9472C53.6511 38.1073 53.8633 38.2837 54.0676 38.4718C54.1515 38.5517 54.2357 38.628 54.3199 38.7122C57.4997 41.892 57.4997 47.0424 54.3199 50.2262C54.1597 50.3824 53.9993 50.5346 53.8314 50.6749C53.7594 50.7389 53.6832 50.8032 53.6072 50.8592C53.3629 51.0515 53.1068 51.2316 52.8462 51.3918C52.7583 51.4478 52.6699 51.5002 52.5819 51.548C52.494 51.604 52.4016 51.6521 52.3136 51.6962C49.2457 53.2899 45.3811 52.8014 42.8059 50.2262Z" fill="#FDC347"/>
<path d="M86.4474 121.354C86.4474 121.354 86.4474 121.017 86.4474 120.394L39.3999 73.3579C37.5745 71.8983 35.1578 71.1673 32.1488 71.1673C25.5393 71.1673 22.2344 74.2122 22.2344 80.3019V91.2929C22.2344 94.5896 23.2116 96.986 25.1488 98.498L62.0306 135.38H72.4224C80.1677 135.379 86.4474 129.1 86.4474 121.354Z" fill="url(#paint1_linear_401_1782)"/>
<path d="M64.1494 69.0877C63.5005 68.5434 62.778 68.2706 61.9795 68.2706C60.8934 68.2706 60.1531 68.7163 59.7584 69.6075L32.5942 124.174C32.3971 124.521 32.2986 124.892 32.2986 125.288C32.2986 125.981 32.5724 126.612 33.121 127.182L41.3187 135.379H72.422C80.1677 135.379 86.447 129.1 86.447 121.354C86.447 121.354 86.447 111.394 86.447 98.9872V91.495L64.1494 69.0877Z" fill="url(#paint2_linear_401_1782)"/>
<path d="M72.1501 98.3848C70.3247 96.9252 67.9078 96.1942 64.8991 96.1942C58.2895 96.1942 54.9846 99.2391 54.9846 105.329V116.32C54.9846 119.616 55.9619 122.013 57.8991 123.525L69.7536 135.379H72.4216C80.1672 135.379 86.4466 129.1 86.4466 121.354C86.4466 121.354 86.4466 117.963 86.4466 112.678L72.1501 98.3848Z" fill="url(#paint3_linear_401_1782)"/>
<path d="M22.2344 91.2926V80.3016C22.2344 74.2119 25.5393 71.167 32.1488 71.167C35.1576 71.167 37.5747 71.898 39.3999 73.3576C41.2239 74.8186 42.1371 77.1337 42.1371 80.3013V91.2923C42.1371 94.4613 41.2242 96.7762 39.3999 98.236C37.5745 99.697 35.1576 100.427 32.1488 100.427C25.5393 100.427 22.2344 97.3821 22.2344 91.2926ZM27.507 91.1686C27.507 94.0243 29.054 95.4515 32.1486 95.4515C35.2917 95.4515 36.8639 94.0243 36.8639 91.1686V80.4256C36.8639 77.5712 35.2917 76.143 32.1486 76.143C29.0538 76.143 27.507 77.5712 27.507 80.4256C27.5073 80.4256 27.5073 91.1686 27.507 91.1686ZM32.2986 125.288C32.2986 124.892 32.3972 124.521 32.5943 124.174L59.7587 69.6075C60.1534 68.7163 60.8937 68.2706 61.9798 68.2706C62.778 68.2706 63.5008 68.5434 64.1497 69.0877C64.7984 69.633 65.1233 70.3013 65.1233 71.0926C65.1233 71.4897 65.0489 71.8853 64.9015 72.2808L37.7349 126.625C37.29 127.565 36.4514 128.036 35.2179 128.036C34.3689 128.036 33.6703 127.75 33.121 127.182C32.5725 126.612 32.2986 125.981 32.2986 125.288ZM54.9851 116.473V105.398C54.9851 99.2622 58.2901 96.1942 64.8996 96.1942C67.9083 96.1942 70.3255 96.931 72.1506 98.4023C73.9747 99.8736 74.8879 102.206 74.8879 105.398V116.473C74.8879 119.666 73.9747 121.998 72.1506 123.47C70.3253 124.941 67.9083 125.677 64.8996 125.677C58.2898 125.677 54.9851 122.609 54.9851 116.473ZM60.2578 116.369C60.2578 119.257 61.8048 120.701 64.8993 120.701C68.0425 120.701 69.6147 119.258 69.6147 116.369V105.501C69.6147 102.614 68.0425 101.169 64.8993 101.169C61.8045 101.169 60.2578 102.614 60.2578 105.501V116.369Z" fill="url(#paint4_linear_401_1782)"/>
<path d="M86.4469 44.9748V70.9376L54.9831 39.4738C54.7804 39.2105 54.56 38.9545 54.3217 38.7127C54.2364 38.6275 54.1509 38.5528 54.0691 38.4708C54.0122 38.4174 53.9551 38.3674 53.8948 38.3215C53.7456 38.1863 53.5888 38.062 53.4361 37.9483C50.392 35.6687 46.1285 35.7933 43.2268 38.3255V18.6033C46.5801 16.9318 50.5166 16.893 53.8951 18.4894C54.2683 18.6636 54.6383 18.8626 54.9974 19.0799L75.1746 31.2699L80.5476 34.5201C84.2066 36.732 86.4469 40.6932 86.4469 44.9748Z" fill="url(#paint5_linear_401_1782)"/>
<path d="M48.5608 48.0189C45.615 48.0189 43.2268 45.6307 43.2268 42.6849V5.33402C43.2268 2.38823 45.615 0 48.5608 0C51.5066 0 53.8948 2.38823 53.8948 5.33402V42.6846C53.8951 45.6307 51.5066 48.0189 48.5608 48.0189Z" fill="url(#paint6_linear_401_1782)"/>
</g>
<path d="M169.125 58H175.985C182.635 58 187.22 54.395 187.22 46.52C187.22 38.61 182.635 35.215 175.67 35.215H169.125V58ZM174.585 53.625V39.59H175.355C179.03 39.59 181.655 41.095 181.655 46.52C181.655 51.91 179.03 53.625 175.355 53.625H174.585ZM195.4 58.42C197.36 58.42 198.935 57.545 200.37 56.25H200.51L200.895 58H205.305V48.13C205.305 42.67 202.785 40.185 198.305 40.185C195.575 40.185 193.09 41.06 190.815 42.46L192.705 45.96C194.455 44.98 195.855 44.49 197.255 44.49C199.04 44.49 199.775 45.33 199.915 46.765C193.055 47.465 190.22 49.46 190.22 53.135C190.22 56.04 192.215 58.42 195.4 58.42ZM197.255 54.22C196.065 54.22 195.4 53.73 195.4 52.715C195.4 51.49 196.45 50.545 199.915 50.09V52.855C199.075 53.695 198.34 54.22 197.255 54.22ZM209.55 58H214.94V40.605H209.55V58ZM212.245 38.155C214.03 38.155 215.29 37.07 215.29 35.355C215.29 33.675 214.03 32.59 212.245 32.59C210.46 32.59 209.2 33.675 209.2 35.355C209.2 37.07 210.46 38.155 212.245 38.155ZM224.294 58.42C225.484 58.42 226.394 58.21 226.989 57.965L226.359 53.975C226.079 54.045 225.939 54.045 225.729 54.045C225.309 54.045 224.749 53.695 224.749 52.575V33.535H219.359V52.365C219.359 56.005 220.584 58.42 224.294 58.42ZM231.646 64.72C235.811 64.72 237.666 62.515 239.381 58.035L245.366 40.605H240.186L238.191 47.815C237.736 49.46 237.386 51.105 237.001 52.75H236.861C236.406 51.035 236.021 49.425 235.531 47.815L233.151 40.605H227.726L234.411 57.51L234.166 58.35C233.746 59.61 232.906 60.485 231.226 60.485C230.876 60.485 230.631 60.45 230.071 60.31L229.126 64.3C229.826 64.58 230.526 64.72 231.646 64.72ZM169.125 100H175.985C182.635 100 187.22 96.395 187.22 88.52C187.22 80.61 182.635 77.215 175.67 77.215H169.125V100ZM174.585 95.625V81.59H175.355C179.03 81.59 181.655 83.095 181.655 88.52C181.655 93.91 179.03 95.625 175.355 95.625H174.585ZM190.99 100H196.38V82.605H190.99V100ZM193.685 80.155C195.47 80.155 196.73 79.07 196.73 77.355C196.73 75.675 195.47 74.59 193.685 74.59C191.9 74.59 190.64 75.675 190.64 77.355C190.64 79.07 191.9 80.155 193.685 80.155ZM206.015 100.42C210.74 100.42 213.26 97.935 213.26 94.75C213.26 91.88 211.16 90.305 208.5 89.465C206.295 88.765 205.315 88.345 205.315 87.435C205.315 86.665 205.91 86.175 207.17 86.175C208.36 86.175 209.655 86.525 210.915 87.435L213.225 84.39C211.72 83.13 209.55 82.185 206.995 82.185C202.935 82.185 200.275 84.39 200.275 87.68C200.275 90.375 202.375 91.95 204.86 92.86C206.715 93.56 208.185 94.015 208.185 95.065C208.185 95.905 207.59 96.43 206.12 96.43C204.755 96.43 203.18 96.01 201.57 94.75L199.295 97.795C201.045 99.51 203.705 100.42 206.015 100.42ZM224.085 100.42C225.94 100.42 228.145 99.895 229.825 98.355L227.725 94.96C226.85 95.625 225.87 96.045 224.715 96.045C222.58 96.045 220.97 94.19 220.97 91.285C220.97 88.415 222.475 86.525 224.89 86.525C225.66 86.525 226.325 86.77 227.13 87.365L229.65 84.04C228.355 82.92 226.71 82.185 224.575 82.185C219.745 82.185 215.44 85.51 215.44 91.285C215.44 97.06 219.185 100.42 224.085 100.42ZM239.36 100.42C243.805 100.42 247.9 97.06 247.9 91.285C247.9 85.51 243.805 82.185 239.36 82.185C234.95 82.185 230.855 85.51 230.855 91.285C230.855 97.06 234.95 100.42 239.36 100.42ZM239.36 96.045C237.33 96.045 236.385 94.19 236.385 91.285C236.385 88.415 237.33 86.525 239.36 86.525C241.39 86.525 242.335 88.415 242.335 91.285C242.335 94.19 241.39 96.045 239.36 96.045ZM256.567 100.42C258.912 100.42 260.557 99.335 261.992 97.62H262.132L262.517 100H266.927V82.605H261.502V94.015C260.557 95.31 259.822 95.8 258.597 95.8C257.197 95.8 256.567 95.1 256.567 92.685V82.605H251.142V93.385C251.142 97.725 252.752 100.42 256.567 100.42ZM271.347 100H276.737V88.345C277.822 87.365 278.557 86.77 279.782 86.77C281.182 86.77 281.812 87.505 281.812 89.92V100H287.237V89.22C287.237 84.88 285.627 82.185 281.847 82.185C279.467 82.185 277.717 83.375 276.282 84.775H276.142L275.757 82.605H271.347V100ZM298.303 100.42C300.018 100.42 301.348 100.07 302.258 99.72L301.418 95.94C300.963 96.115 300.368 96.185 299.808 96.185C298.513 96.185 297.603 95.45 297.603 93.49V86.84H301.698V82.605H297.603V77.285H293.123L292.493 82.605L289.833 82.78V86.84H292.178V93.56C292.178 97.655 293.963 100.42 298.303 100.42ZM309.921 100.42C314.646 100.42 317.166 97.935 317.166 94.75C317.166 91.88 315.066 90.305 312.406 89.465C310.201 88.765 309.221 88.345 309.221 87.435C309.221 86.665 309.816 86.175 311.076 86.175C312.266 86.175 313.561 86.525 314.821 87.435L317.131 84.39C315.626 83.13 313.456 82.185 310.901 82.185C306.841 82.185 304.181 84.39 304.181 87.68C304.181 90.375 306.281 91.95 308.766 92.86C310.621 93.56 312.091 94.015 312.091 95.065C312.091 95.905 311.496 96.43 310.026 96.43C308.661 96.43 307.086 96.01 305.476 94.75L303.201 97.795C304.951 99.51 307.611 100.42 309.921 100.42Z" fill="url(#paint7_linear_401_1782)"/>
<defs>
<linearGradient id="paint0_linear_401_1782" x1="63.0023" y1="14.1675" x2="123.435" y2="103.535" gradientUnits="userSpaceOnUse">
<stop stop-color="white"/>
<stop offset="1" stop-color="white" stop-opacity="0"/>
</linearGradient>
<linearGradient id="paint1_linear_401_1782" x1="50.7949" y1="104.481" x2="28.5501" y2="82.2361" gradientUnits="userSpaceOnUse">
<stop stop-color="#FDC347" stop-opacity="0"/>
<stop offset="1" stop-color="#F59500"/>
</linearGradient>
<linearGradient id="paint2_linear_401_1782" x1="74.4134" y1="123.915" x2="40.1661" y2="89.6675" gradientUnits="userSpaceOnUse">
<stop stop-color="#FDC347" stop-opacity="0"/>
<stop offset="1" stop-color="#F59500"/>
</linearGradient>
<linearGradient id="paint3_linear_401_1782" x1="89.9967" y1="135.965" x2="56.0988" y2="102.065" gradientUnits="userSpaceOnUse">
<stop stop-color="#FDC347" stop-opacity="0"/>
<stop offset="1" stop-color="#F59500"/>
</linearGradient>
<linearGradient id="paint4_linear_401_1782" x1="48.56" y1="82.2145" x2="48.56" y2="148.936" gradientUnits="userSpaceOnUse">
<stop stop-color="white"/>
<stop offset="1" stop-color="#E2EDF2"/>
</linearGradient>
<linearGradient id="paint5_linear_401_1782" x1="83.1256" y1="51.9127" x2="28.7748" y2="21.652" gradientUnits="userSpaceOnUse">
<stop stop-color="#FDC347"/>
<stop offset="1" stop-color="#F59500"/>
</linearGradient>
<linearGradient id="paint6_linear_401_1782" x1="39.5" y1="21.5" x2="55.5" y2="44" gradientUnits="userSpaceOnUse">
<stop stop-color="#FF7A7A"/>
<stop offset="1" stop-color="#F75900"/>
</linearGradient>
<linearGradient id="paint7_linear_401_1782" x1="99.7317" y1="-78.3001" x2="391.797" y2="-52.0585" gradientUnits="userSpaceOnUse">
<stop stop-color="#FB3C00"/>
<stop offset="1" stop-color="#FFB800"/>
</linearGradient>
<clipPath id="clip0_401_1782">
<rect width="136" height="136" fill="white" transform="translate(0.5)"/>
</clipPath>
</defs>
</svg>
