<svg width="283" height="136" viewBox="0 0 283 136" fill="none" xmlns="http://www.w3.org/2000/svg">
<g clip-path="url(#clip0_401_1795)">
<path d="M15.364 88.1771L1.51024 121.797C-0.614839 126.954 0.835657 136 3.78777 136H133.212C136.172 136 137.619 126.914 135.478 121.769L121.483 88.1273C120.381 85.4774 118.915 84 117.391 84H19.4758C17.9425 84.0008 16.4683 85.4973 15.364 88.1771Z" fill="url(#paint0_linear_401_1795)"/>
<path d="M80.2499 93.577L80.2385 93.5688H56.7971C59.23 96.2926 61.4556 98.6833 63.2981 100.618L80.2499 116.542H104.229L80.2499 93.577Z" fill="url(#paint1_linear_401_1795)"/>
<path d="M68.5181 0C45.351 0 26.5696 18.7989 26.5696 41.9873C26.5696 60.0646 52.0604 88.8175 63.2985 100.618C66.1408 103.603 70.8957 103.603 73.738 100.618C84.9789 88.8175 110.47 60.0646 110.47 41.9873C110.469 18.7989 91.688 0 68.5181 0ZM68.5181 57.9593C59.7053 57.9593 52.5611 50.8083 52.5611 41.9875C52.5611 33.1667 59.7055 26.0157 68.5181 26.0157C77.3307 26.0157 84.4752 33.1667 84.4752 41.9875C84.4752 50.8083 77.3307 57.9593 68.5181 57.9593Z" fill="url(#paint2_linear_401_1795)"/>
<circle cx="68.5" cy="42.3959" r="25" fill="white"/>
<path d="M68.5178 17C54.5121 17 43.158 28.3647 43.158 42.3834C43.158 56.4021 54.5121 67.7668 68.5178 67.7668C82.5235 67.7668 93.8776 56.4021 93.8776 42.3834C93.8776 28.3647 82.5233 17 68.5178 17ZM68.5178 58.3552C59.705 58.3552 52.5608 51.2042 52.5608 42.3834C52.5608 33.5626 59.7052 26.4116 68.5178 26.4116C77.3304 26.4116 84.4748 33.5626 84.4748 42.3834C84.4748 51.2042 77.3304 58.3552 68.5178 58.3552Z" fill="url(#paint3_linear_401_1795)"/>
</g>
<path d="M169.125 58H183.44V53.45H174.585V35.215H169.125V58ZM186.991 58H192.381V40.605H186.991V58ZM189.686 38.155C191.471 38.155 192.731 37.07 192.731 35.355C192.731 33.675 191.471 32.59 189.686 32.59C187.901 32.59 186.641 33.675 186.641 35.355C186.641 37.07 187.901 38.155 189.686 38.155ZM200.826 58H207.091L212.691 40.605H207.511L205.376 48.62C204.956 50.335 204.501 52.155 204.046 53.975H203.906C203.486 52.155 203.031 50.335 202.611 48.62L200.441 40.605H195.016L200.826 58ZM222.858 58.42C224.923 58.42 227.303 57.755 229.123 56.46L227.373 53.205C226.148 53.905 224.888 54.29 223.628 54.29C221.423 54.29 219.778 53.275 219.288 50.93H229.543C229.648 50.44 229.753 49.53 229.753 48.55C229.753 43.825 227.303 40.185 222.263 40.185C218.098 40.185 214.038 43.65 214.038 49.285C214.038 55.095 217.888 58.42 222.858 58.42ZM219.218 47.29C219.568 45.26 220.863 44.28 222.403 44.28C224.363 44.28 225.133 45.575 225.133 47.29H219.218ZM173.57 100H178.995V81.765H185.19V77.215H167.375V81.765H173.57V100ZM186.82 100H192.21V90.06C193.12 87.75 194.695 86.91 195.99 86.91C196.76 86.91 197.145 86.98 197.775 87.12L198.79 82.535C198.3 82.29 197.705 82.185 196.69 82.185C194.94 82.185 193.015 83.27 191.755 85.615H191.615L191.23 82.605H186.82V100ZM204.389 100.42C206.349 100.42 207.924 99.545 209.359 98.25H209.499L209.884 100H214.294V90.13C214.294 84.67 211.774 82.185 207.294 82.185C204.564 82.185 202.079 83.06 199.804 84.46L201.694 87.96C203.444 86.98 204.844 86.49 206.244 86.49C208.029 86.49 208.764 87.33 208.904 88.765C202.044 89.465 199.209 91.46 199.209 95.135C199.209 98.04 201.204 100.42 204.389 100.42ZM206.244 96.22C205.054 96.22 204.389 95.73 204.389 94.715C204.389 93.49 205.439 92.545 208.904 92.09V94.855C208.064 95.695 207.329 96.22 206.244 96.22ZM226.204 100.42C228.059 100.42 230.264 99.895 231.944 98.355L229.844 94.96C228.969 95.625 227.989 96.045 226.834 96.045C224.699 96.045 223.089 94.19 223.089 91.285C223.089 88.415 224.594 86.525 227.009 86.525C227.779 86.525 228.444 86.77 229.249 87.365L231.769 84.04C230.474 82.92 228.829 82.185 226.694 82.185C221.864 82.185 217.559 85.51 217.559 91.285C217.559 97.06 221.304 100.42 226.204 100.42ZM234.945 100H240.335V82.605H234.945V100ZM237.64 80.155C239.425 80.155 240.685 79.07 240.685 77.355C240.685 75.675 239.425 74.59 237.64 74.59C235.855 74.59 234.595 75.675 234.595 77.355C234.595 79.07 235.855 80.155 237.64 80.155ZM244.755 100H250.145V88.345C251.23 87.365 251.965 86.77 253.19 86.77C254.59 86.77 255.22 87.505 255.22 89.92V100H260.645V89.22C260.645 84.88 259.035 82.185 255.255 82.185C252.875 82.185 251.125 83.375 249.69 84.775H249.55L249.165 82.605H244.755V100ZM271.117 107.315C277.172 107.315 280.987 104.725 280.987 101.05C280.987 97.9 278.572 96.605 274.267 96.605H271.502C269.647 96.605 268.947 96.22 268.947 95.38C268.947 94.82 269.122 94.54 269.507 94.19C270.277 94.4 270.977 94.505 271.572 94.505C275.422 94.505 278.502 92.72 278.502 88.66C278.502 87.82 278.257 87.015 277.977 86.525H280.707V82.605H274.302C273.497 82.325 272.552 82.185 271.572 82.185C267.792 82.185 264.292 84.25 264.292 88.485C264.292 90.515 265.412 92.125 266.637 92.965V93.105C265.517 93.91 264.712 95.17 264.712 96.395C264.712 97.83 265.377 98.74 266.287 99.37V99.51C264.677 100.35 263.837 101.505 263.837 102.94C263.837 106.055 267.092 107.315 271.117 107.315ZM271.572 91.25C270.312 91.25 269.367 90.305 269.367 88.485C269.367 86.7 270.277 85.79 271.572 85.79C272.867 85.79 273.777 86.7 273.777 88.485C273.777 90.305 272.867 91.25 271.572 91.25ZM271.992 103.955C269.752 103.955 268.282 103.325 268.282 102.065C268.282 101.505 268.562 101.015 269.122 100.525C269.647 100.665 270.312 100.735 271.572 100.735H273.252C274.897 100.735 275.807 100.945 275.807 101.995C275.807 103.115 274.197 103.955 271.992 103.955Z" fill="url(#paint4_linear_401_1795)"/>
<defs>
<linearGradient id="paint0_linear_401_1795" x1="68.5" y1="84" x2="68.5" y2="136" gradientUnits="userSpaceOnUse">
<stop stop-color="white"/>
<stop offset="0.71875" stop-color="#F0F0F0"/>
<stop offset="1" stop-color="#E0E0E0"/>
</linearGradient>
<linearGradient id="paint1_linear_401_1795" x1="91.9151" y1="116.221" x2="72.9765" y2="100.828" gradientUnits="userSpaceOnUse">
<stop stop-color="#FEFEFE" stop-opacity="0"/>
<stop offset="1" stop-color="#D7D7D7"/>
</linearGradient>
<linearGradient id="paint2_linear_401_1795" x1="53.9781" y1="29.6747" x2="95.9908" y2="71.6484" gradientUnits="userSpaceOnUse">
<stop stop-color="#FFC851"/>
<stop offset="1" stop-color="#FFAE00"/>
</linearGradient>
<linearGradient id="paint3_linear_401_1795" x1="77.9717" y1="32.9201" x2="50.5449" y2="60.3236" gradientUnits="userSpaceOnUse">
<stop stop-color="#FFCB5B"/>
<stop offset="1" stop-color="#FAAE0B"/>
</linearGradient>
<linearGradient id="paint4_linear_401_1795" x1="115.545" y1="-78.3001" x2="339.185" y2="-62.9655" gradientUnits="userSpaceOnUse">
<stop stop-color="#FB3C00"/>
<stop offset="1" stop-color="#FFB800"/>
</linearGradient>
<clipPath id="clip0_401_1795">
<rect width="136" height="136" fill="white" transform="translate(0.5)"/>
</clipPath>
</defs>
</svg>
