<svg width="297" height="136" viewBox="0 0 297 136" fill="none" xmlns="http://www.w3.org/2000/svg">
<g clip-path="url(#clip0_401_1804)">
<path d="M115.5 68.5C115.5 73.9528 114.669 79.2149 113.122 84.1582C112.954 84.71 112.774 85.2553 112.58 85.7972C111.969 87.5645 111.26 89.2857 110.465 90.9609C109.798 92.3735 109.068 93.7496 108.277 95.0865C106.7 97.7702 104.894 100.299 102.877 102.648C100.768 105.108 98.4358 107.372 95.9132 109.408C86.9098 116.658 75.4623 121 63 121C34.0056 121 10.5 97.4944 10.5 68.5C10.5 39.5056 34.0051 16 62.9997 16C91.9944 16 115.5 39.5056 115.5 68.5Z" fill="url(#paint0_linear_401_1804)"/>
<path d="M63.2231 33C61.167 33 59.5 63.0233 59.5 65.1003C59.5 66.4237 60.1784 67.5856 61.2016 68.2557L99.5567 107C106.027 100.709 110.899 92.7528 113.5 83.8145C104.935 75.2258 63.2231 33 63.2231 33Z" fill="url(#paint1_linear_401_1804)"/>
<path d="M63.5 72C65.1569 72 66.5 70.6569 66.5 69C66.5 67.3431 65.1569 66 63.5 66C61.8431 66 60.5 67.3431 60.5 69C60.5 70.6569 61.8431 72 63.5 72Z" fill="url(#paint2_linear_401_1804)"/>
<path d="M63.0003 27C62.5861 27 62.2111 27.1439 61.9395 27.3767C61.6682 27.6092 61.5 27.9307 61.5 28.286V37.7143C61.5 37.9804 61.5943 38.2278 61.7561 38.433C61.8637 38.5699 62.0015 38.688 62.1612 38.7802C62.2409 38.8266 62.3263 38.8663 62.4161 38.8989C62.5955 38.9638 62.7929 39 62.9997 39C63.4139 39 63.7889 38.8561 64.0605 38.6233C64.3318 38.3905 64.5 38.0693 64.5 37.714V28.2857C64.5003 27.5756 63.8285 27 63.0003 27Z" fill="url(#paint3_linear_401_1804)"/>
<path d="M63.0002 98C62.1716 98 61.5 98.6239 61.5 99.3929V109.607C61.5 109.74 61.5262 109.866 61.5636 109.987C61.7424 110.57 62.3146 111 62.9998 111C63.207 111 63.4044 110.961 63.5835 110.89C64.1219 110.679 64.5 110.184 64.5 109.607V99.3926C64.5003 98.6236 63.8284 98 63.0002 98Z" fill="url(#paint4_linear_401_1804)"/>
<path d="M104.107 67H93.8929C93.1236 67 92.5 67.6715 92.5 68.5C92.5 69.3285 93.1236 70 93.8929 70H104.107C104.876 70 105.5 69.3285 105.5 68.5C105.5 67.6715 104.876 67 104.107 67Z" fill="url(#paint5_linear_401_1804)"/>
<path d="M33.5 68.4999C33.5 68.1894 33.4192 67.9005 33.2805 67.6611C33.1882 67.5015 33.0701 67.3637 32.9333 67.2561C32.7281 67.0943 32.4807 67 32.2143 67H22.7859C22.4309 67 22.1095 67.1679 21.8767 67.4394C21.6442 67.711 21.5 68.0857 21.5 68.5001C21.5 69.3285 22.0756 70 22.7857 70H32.2138C32.5688 70 32.8903 69.8321 33.1231 69.5606C33.3558 69.289 33.5 68.9143 33.5 68.4999Z" fill="url(#paint6_linear_401_1804)"/>
<path d="M85.876 47.6332L93.0924 41.1383C93.6359 40.6492 93.6359 39.8561 93.0924 39.3669C92.5489 38.8776 91.6677 38.8778 91.1242 39.3669L83.9078 45.8618C83.3641 46.3512 83.3641 47.144 83.9078 47.6332C84.4513 48.1223 85.3325 48.1223 85.876 47.6332Z" fill="url(#paint7_linear_401_1804)"/>
<path d="M42.1332 89.4076C41.644 88.8641 40.8507 88.8641 40.3615 89.4076L33.8656 96.6238C33.4437 97.0925 33.3878 97.8115 33.6936 98.3496C33.7325 98.4179 33.779 98.4816 33.8295 98.5432C33.8425 98.559 33.8516 98.5767 33.8656 98.5923C34.1043 98.8575 34.4155 98.9913 34.7284 98.9975C34.736 98.9977 34.7437 99 34.7513 99C35.0718 99 35.3924 98.864 35.6373 98.5923L42.1332 91.376C42.3166 91.1723 42.4314 90.9212 42.4771 90.6579C42.4924 90.5701 42.5 90.4813 42.5 90.3921C42.5003 90.0354 42.3781 89.679 42.1332 89.4076Z" fill="url(#paint8_linear_401_1804)"/>
<path d="M93.0966 96.6257L85.8768 89.4045C85.7069 89.2346 85.5025 89.1241 85.2874 89.0603C85.0804 88.9991 84.8636 88.9827 84.6519 89.0194C84.3795 89.0671 84.1183 89.1936 83.908 89.404C83.364 89.9481 83.364 90.8296 83.908 91.3735L91.1278 98.5947C91.2094 98.6763 91.3 98.7415 91.3946 98.7985C91.9299 99.1221 92.6348 99.0572 93.0972 98.5947C93.3188 98.373 93.4453 98.0943 93.4859 97.806C93.5449 97.3881 93.4188 96.9482 93.0966 96.6257Z" fill="url(#paint9_linear_401_1804)"/>
<path d="M35.6384 39.367C35.3938 39.1224 35.0731 39 34.7526 39C34.6726 39 34.5923 39.0076 34.5133 39.0229C34.2764 39.0688 34.0503 39.1831 33.867 39.3667C33.6224 39.6113 33.5 39.9321 33.5 40.2526C33.5 40.3326 33.5076 40.4128 33.5229 40.4918C33.5688 40.7288 33.6831 40.9548 33.8667 41.1382L40.3616 47.6333C40.3728 47.6444 40.386 47.6518 40.3977 47.6625C40.512 47.7686 40.6392 47.8527 40.7761 47.9083C40.9267 47.9695 41.0872 48 41.2474 48C41.5679 48 41.8887 47.8776 42.1333 47.633C42.3166 47.4496 42.4314 47.2234 42.4771 46.9867C42.4924 46.9077 42.5 46.8277 42.5 46.7474C42.5 46.4269 42.3776 46.1061 42.133 45.8616L35.6384 39.367Z" fill="url(#paint10_linear_401_1804)"/>
<path d="M110.5 91.3934C109.835 92.8182 109.108 94.2062 108.319 95.5547C106.747 98.2615 104.945 100.813 102.934 103.181C100.832 105.663 98.5059 107.946 95.9906 110L59.163 72.7937C56.9457 70.554 56.9457 66.9228 59.163 64.683C59.2611 64.5838 59.3595 64.4907 59.4642 64.4013C61.5863 62.5329 64.757 62.5329 66.8794 64.4013C66.9843 64.4907 67.0824 64.5835 67.1805 64.683C67.2786 64.7823 67.377 64.8884 67.4622 64.9946H67.4653C67.5307 64.9978 67.5964 65.0013 67.6684 65.0045C67.7929 65.0143 67.9305 65.021 68.0777 65.0309C68.8506 65.0805 69.9087 65.1635 71.1368 65.276C71.5036 65.3091 71.8868 65.3457 72.2832 65.3854C72.568 65.415 72.8597 65.4417 73.1577 65.4748C73.4101 65.5012 73.6656 65.5279 73.9272 65.5543C74.1171 65.574 74.3104 65.5975 74.5037 65.6172C74.8117 65.6503 75.1195 65.6869 75.4306 65.7234C76.9112 65.8957 78.4439 66.091 79.9078 66.31C80.1077 66.3396 80.3073 66.3698 80.504 66.4026C80.5333 66.4058 80.5663 66.4093 80.5955 66.4159C80.8247 66.4525 81.051 66.4888 81.2736 66.5221C81.4961 66.5619 81.7158 66.5984 81.9321 66.6347C82.076 66.6611 82.2203 66.6846 82.3643 66.711C82.5837 66.7507 82.8031 66.7905 83.0194 66.8337C83.1275 66.8534 83.2356 66.8734 83.3403 66.8934C83.5629 66.9399 83.7757 66.9828 83.9856 67.026C84.051 67.0394 84.1135 67.0524 84.1758 67.0658C84.261 67.0855 84.3461 67.1058 84.4282 67.1221C84.4674 67.1287 84.5067 67.1386 84.546 67.1485C84.6673 67.1781 84.7884 67.2048 84.9028 67.2312C84.9846 67.2509 85.0632 67.2712 85.1386 67.2874C85.4432 67.3669 85.7283 67.443 85.9967 67.5193C86.059 67.539 86.1212 67.559 86.1803 67.5756C86.2296 67.5889 86.2752 67.6052 86.3211 67.6188C86.3899 67.642 86.4553 67.6652 86.521 67.6852C86.5439 67.6919 86.5669 67.6983 86.5898 67.7084C86.7209 67.7548 86.8422 67.7978 86.9567 67.8442C86.9664 67.8474 86.9762 67.8541 86.9894 67.8573C87.0516 67.8837 87.1138 67.9103 87.1729 67.9336C87.3137 67.9965 87.4382 68.0563 87.5498 68.1192C87.5991 68.1488 87.6413 68.1755 87.684 68.2019C87.8214 68.2913 87.9264 68.3809 87.9952 68.4703C88.0181 68.4935 88.0345 68.5202 88.0477 68.5431C88.0508 68.5498 88.0543 68.553 88.0543 68.5565C88.0706 68.5861 88.0835 68.6162 88.0904 68.649C88.1001 68.6786 88.1033 68.7088 88.1033 68.7384L110.5 91.3934Z" fill="url(#paint11_linear_401_1804)"/>
<path d="M67.2299 73C65.17 73 63.5 71.209 63.5 69C63.5 66.791 65.17 65 67.2299 65C69.2898 65 88.5 66.791 88.5 69C88.5003 71.2093 69.2898 73 67.2299 73Z" fill="url(#paint12_linear_401_1804)"/>
<path d="M67.5 65.2245C67.5 67.3095 65.709 69 63.5 69C61.291 69 59.5 67.3095 59.5 65.2245C59.5 63.1395 61.291 33 63.5 33C65.709 33.0003 67.5 63.1395 67.5 65.2245Z" fill="url(#paint13_linear_401_1804)"/>
<path d="M63 74C66.0376 74 68.5 71.5376 68.5 68.5C68.5 65.4624 66.0376 63 63 63C59.9624 63 57.5 65.4624 57.5 68.5C57.5 71.5376 59.9624 74 63 74Z" fill="white"/>
<path d="M132.066 59.7389H126.022H125.742C121.35 29.3934 95.0895 6 63.4459 6C28.7372 6 0.5 34.1429 0.5 68.7356C0.5 83.0095 5.43982 96.9801 14.4094 108.073C23.2438 119 35.6246 126.742 49.2708 129.873C49.6443 129.959 50.0175 130 50.3854 130C52.6387 130 54.676 128.456 55.2033 126.174C55.8163 123.519 54.1546 120.872 51.4909 120.261C39.9968 117.623 29.5647 111.097 22.1155 101.885C14.449 92.403 10.3969 80.9406 10.3969 68.7361C10.3969 39.5822 34.1945 15.8642 63.4459 15.8642C89.6205 15.8642 111.425 34.8561 115.723 59.7392H110.503C106.561 59.7392 104.587 64.4894 107.374 67.2673L118.156 78.0131C119.884 79.7352 122.686 79.7352 124.414 78.0131L135.195 67.2673C137.983 64.4892 136.008 59.7389 132.066 59.7389Z" fill="url(#paint14_linear_401_1804)"/>
</g>
<path d="M178.505 53.975C175.53 53.975 173.64 51.245 173.64 46.52C173.64 42.075 175.53 39.485 178.505 39.485C181.515 39.485 183.37 42.075 183.37 46.52C183.37 51.245 181.515 53.975 178.505 53.975ZM186.1 64.44C187.92 64.44 189.355 64.09 190.23 63.635L189.285 59.75C188.585 59.96 187.71 60.1 186.73 60.1C184.84 60.1 182.81 59.54 181.76 57.965C186.135 56.635 188.935 52.575 188.935 46.52C188.935 39.065 184.7 34.795 178.505 34.795C172.31 34.795 168.075 39.03 168.075 46.52C168.075 52.925 171.225 57.125 176.02 58.175C177.7 61.815 181.13 64.44 186.1 64.44ZM197.983 58.42C200.328 58.42 201.973 57.335 203.408 55.62H203.548L203.933 58H208.343V40.605H202.918V52.015C201.973 53.31 201.238 53.8 200.013 53.8C198.613 53.8 197.983 53.1 197.983 50.685V40.605H192.558V51.385C192.558 55.725 194.168 58.42 197.983 58.42ZM212.763 58H218.153V40.605H212.763V58ZM215.458 38.155C217.243 38.155 218.503 37.07 218.503 35.355C218.503 33.675 217.243 32.59 215.458 32.59C213.673 32.59 212.413 33.675 212.413 35.355C212.413 37.07 213.673 38.155 215.458 38.155ZM230.237 58.42C232.092 58.42 234.297 57.895 235.977 56.355L233.877 52.96C233.002 53.625 232.022 54.045 230.867 54.045C228.732 54.045 227.122 52.19 227.122 49.285C227.122 46.415 228.627 44.525 231.042 44.525C231.812 44.525 232.477 44.77 233.282 45.365L235.802 42.04C234.507 40.92 232.862 40.185 230.727 40.185C225.897 40.185 221.592 43.51 221.592 49.285C221.592 55.06 225.337 58.42 230.237 58.42ZM238.978 58H244.333V53.695L246.328 51.385L250.108 58H255.988L249.513 47.85L255.568 40.605H249.618L244.438 47.185H244.333V33.535H238.978V58ZM169.125 100H175.985C182.635 100 187.22 96.395 187.22 88.52C187.22 80.61 182.635 77.215 175.67 77.215H169.125V100ZM174.585 95.625V81.59H175.355C179.03 81.59 181.655 83.095 181.655 88.52C181.655 93.91 179.03 95.625 175.355 95.625H174.585ZM198.83 100.42C200.895 100.42 203.275 99.755 205.095 98.46L203.345 95.205C202.12 95.905 200.86 96.29 199.6 96.29C197.395 96.29 195.75 95.275 195.26 92.93H205.515C205.62 92.44 205.725 91.53 205.725 90.55C205.725 85.825 203.275 82.185 198.235 82.185C194.07 82.185 190.01 85.65 190.01 91.285C190.01 97.095 193.86 100.42 198.83 100.42ZM195.19 89.29C195.54 87.26 196.835 86.28 198.375 86.28C200.335 86.28 201.105 87.575 201.105 89.29H195.19ZM214.109 100.42C215.299 100.42 216.209 100.21 216.804 99.965L216.174 95.975C215.894 96.045 215.754 96.045 215.544 96.045C215.124 96.045 214.564 95.695 214.564 94.575V75.535H209.174V94.365C209.174 98.005 210.399 100.42 214.109 100.42ZM219.325 100H224.715V82.605H219.325V100ZM222.02 80.155C223.805 80.155 225.065 79.07 225.065 77.355C225.065 75.675 223.805 74.59 222.02 74.59C220.235 74.59 218.975 75.675 218.975 77.355C218.975 79.07 220.235 80.155 222.02 80.155ZM233.16 100H239.425L245.025 82.605H239.845L237.71 90.62C237.29 92.335 236.835 94.155 236.38 95.975H236.24C235.82 94.155 235.365 92.335 234.945 90.62L232.775 82.605H227.35L233.16 100ZM255.192 100.42C257.257 100.42 259.637 99.755 261.457 98.46L259.707 95.205C258.482 95.905 257.222 96.29 255.962 96.29C253.757 96.29 252.112 95.275 251.622 92.93H261.877C261.982 92.44 262.087 91.53 262.087 90.55C262.087 85.825 259.637 82.185 254.597 82.185C250.432 82.185 246.372 85.65 246.372 91.285C246.372 97.095 250.222 100.42 255.192 100.42ZM251.552 89.29C251.902 87.26 253.197 86.28 254.737 86.28C256.697 86.28 257.467 87.575 257.467 89.29H251.552ZM265.536 100H270.926V90.06C271.836 87.75 273.411 86.91 274.706 86.91C275.476 86.91 275.861 86.98 276.491 87.12L277.506 82.535C277.016 82.29 276.421 82.185 275.406 82.185C273.656 82.185 271.731 83.27 270.471 85.615H270.331L269.946 82.605H265.536V100ZM282.027 106.72C286.192 106.72 288.047 104.515 289.762 100.035L295.747 82.605H290.567L288.572 89.815C288.117 91.46 287.767 93.105 287.382 94.75H287.242C286.787 93.035 286.402 91.425 285.912 89.815L283.532 82.605H278.107L284.792 99.51L284.547 100.35C284.127 101.61 283.287 102.485 281.607 102.485C281.257 102.485 281.012 102.45 280.452 102.31L279.507 106.3C280.207 106.58 280.907 106.72 282.027 106.72Z" fill="url(#paint15_linear_401_1804)"/>
<defs>
<linearGradient id="paint0_linear_401_1804" x1="65.3224" y1="70.8255" x2="133.915" y2="139.418" gradientUnits="userSpaceOnUse">
<stop stop-color="white"/>
<stop offset="1" stop-color="#C3C3C3"/>
</linearGradient>
<linearGradient id="paint1_linear_401_1804" x1="84.4389" y1="70.3474" x2="28.1967" y2="64.0969" gradientUnits="userSpaceOnUse">
<stop stop-color="#C3C3C3" stop-opacity="0"/>
<stop offset="0.267" stop-color="#A4A4A4" stop-opacity="0.267"/>
<stop offset="0.542" stop-color="#8B8B8B" stop-opacity="0.542"/>
<stop offset="0.794" stop-color="#7C7C7C" stop-opacity="0.794"/>
<stop offset="1" stop-color="#777777"/>
</linearGradient>
<linearGradient id="paint2_linear_401_1804" x1="63.4986" y1="67.533" x2="63.4986" y2="76.4865" gradientUnits="userSpaceOnUse">
<stop stop-color="#F18D00"/>
<stop offset="1" stop-color="#ED7103"/>
</linearGradient>
<linearGradient id="paint3_linear_401_1804" x1="60.452" y1="32.3729" x2="64.2752" y2="38.423" gradientUnits="userSpaceOnUse">
<stop stop-color="#FF7A7A"/>
<stop offset="1" stop-color="#F75900"/>
</linearGradient>
<linearGradient id="paint4_linear_401_1804" x1="60.452" y1="103.821" x2="64.7272" y2="110.065" gradientUnits="userSpaceOnUse">
<stop stop-color="#FF7A7A"/>
<stop offset="1" stop-color="#F75900"/>
</linearGradient>
<linearGradient id="paint5_linear_401_1804" x1="87.9585" y1="68.3432" x2="88.0356" y2="70.4569" gradientUnits="userSpaceOnUse">
<stop stop-color="#FF7A7A"/>
<stop offset="1" stop-color="#F75900"/>
</linearGradient>
<linearGradient id="paint6_linear_401_1804" x1="17.3079" y1="68.3432" x2="17.3913" y2="70.4565" gradientUnits="userSpaceOnUse">
<stop stop-color="#FF7A7A"/>
<stop offset="1" stop-color="#F75900"/>
</linearGradient>
<linearGradient id="paint7_linear_401_1804" x1="80.0066" y1="43.0297" x2="80.8915" y2="49.2534" gradientUnits="userSpaceOnUse">
<stop stop-color="#FF7A7A"/>
<stop offset="1" stop-color="#F75900"/>
</linearGradient>
<linearGradient id="paint8_linear_401_1804" x1="30.3559" y1="93.4774" x2="31.5573" y2="100.322" gradientUnits="userSpaceOnUse">
<stop stop-color="#FF7A7A"/>
<stop offset="1" stop-color="#F75900"/>
</linearGradient>
<linearGradient id="paint9_linear_401_1804" x1="80.0066" y1="93.4774" x2="81.094" y2="100.361" gradientUnits="userSpaceOnUse">
<stop stop-color="#FF7A7A"/>
<stop offset="1" stop-color="#F75900"/>
</linearGradient>
<linearGradient id="paint10_linear_401_1804" x1="30.3559" y1="43.0297" x2="31.3346" y2="49.2246" gradientUnits="userSpaceOnUse">
<stop stop-color="#FF7A7A"/>
<stop offset="1" stop-color="#F75900"/>
</linearGradient>
<linearGradient id="paint11_linear_401_1804" x1="83.8353" y1="80.9948" x2="60.6789" y2="55.8503" gradientUnits="userSpaceOnUse">
<stop stop-color="#C3C3C3" stop-opacity="0"/>
<stop offset="0.267" stop-color="#A4A4A4" stop-opacity="0.267"/>
<stop offset="0.542" stop-color="#8B8B8B" stop-opacity="0.542"/>
<stop offset="0.794" stop-color="#7C7C7C" stop-opacity="0.794"/>
<stop offset="1" stop-color="#777777"/>
</linearGradient>
<linearGradient id="paint12_linear_401_1804" x1="81.482" y1="67.548" x2="0.859753" y2="74.9868" gradientUnits="userSpaceOnUse">
<stop stop-color="#FFB92D"/>
<stop offset="1" stop-color="#F59500"/>
</linearGradient>
<linearGradient id="paint13_linear_401_1804" x1="71.5493" y1="84.3573" x2="79.2162" y2="115.003" gradientUnits="userSpaceOnUse">
<stop stop-color="#FFB92D"/>
<stop offset="1" stop-color="#F59500"/>
</linearGradient>
<linearGradient id="paint14_linear_401_1804" x1="12.2692" y1="20.1826" x2="111.243" y2="117.049" gradientUnits="userSpaceOnUse">
<stop stop-color="#FFCD61"/>
<stop offset="1" stop-color="#FFAE00"/>
</linearGradient>
<linearGradient id="paint15_linear_401_1804" x1="109.395" y1="-78.3001" x2="359.727" y2="-59.0637" gradientUnits="userSpaceOnUse">
<stop stop-color="#FB3C00"/>
<stop offset="1" stop-color="#FFB800"/>
</linearGradient>
<clipPath id="clip0_401_1804">
<rect width="136" height="136" fill="white" transform="translate(0.5)"/>
</clipPath>
</defs>
</svg>
