<svg width="93" height="188" viewBox="0 0 93 188" fill="none" xmlns="http://www.w3.org/2000/svg">
<path d="M7.722 20.264C9.526 20.264 11.11 19.582 12.364 18.152L10.582 16.128C9.9 16.854 8.998 17.316 7.832 17.316C5.83 17.316 4.488 15.666 4.488 12.806C4.488 10.034 6.006 8.362 7.898 8.362C8.91 8.362 9.658 8.692 10.362 9.352L12.166 7.284C11.176 6.25 9.68 5.414 7.81 5.414C4.202 5.414 0.99 8.164 0.99 12.938C0.99 17.778 4.07 20.264 7.722 20.264ZM18.9422 20.264C21.7362 20.264 24.3102 18.152 24.3102 14.522C24.3102 10.892 21.7362 8.802 18.9422 8.802C16.1702 8.802 13.5962 10.892 13.5962 14.522C13.5962 18.152 16.1702 20.264 18.9422 20.264ZM18.9422 17.514C17.6662 17.514 17.0722 16.348 17.0722 14.522C17.0722 12.718 17.6662 11.53 18.9422 11.53C20.2182 11.53 20.8122 12.718 20.8122 14.522C20.8122 16.348 20.2182 17.514 18.9422 17.514ZM26.4583 20H29.8463V12.674C30.5063 12.014 31.1003 11.684 31.6063 11.684C32.4863 11.684 32.8823 12.146 32.8823 13.664V20H36.2923V12.674C36.9523 12.014 37.5243 11.684 38.0523 11.684C38.9103 11.684 39.3283 12.146 39.3283 13.664V20H42.7163V13.224C42.7163 10.496 41.6603 8.802 39.2843 8.802C37.8323 8.802 36.8203 9.638 35.8743 10.606C35.3243 9.44 34.3783 8.802 32.8603 8.802C31.4083 8.802 30.4403 9.55 29.5603 10.43H29.4723L29.2303 9.066H26.4583V20ZM45.4075 24.004H48.7955V20.836L48.6855 19.142C49.4555 19.868 50.3135 20.264 51.2595 20.264C53.6135 20.264 55.8355 18.108 55.8355 14.346C55.8355 10.98 54.2075 8.802 51.5675 8.802C50.4455 8.802 49.3455 9.352 48.5095 10.122H48.4215L48.1795 9.066H45.4075V24.004ZM50.4455 17.47C49.9175 17.47 49.3455 17.316 48.7955 16.832V12.498C49.3895 11.86 49.9175 11.574 50.5555 11.574C51.7655 11.574 52.3375 12.476 52.3375 14.39C52.3375 16.612 51.5015 17.47 50.4455 17.47ZM60.5975 20.264C61.8295 20.264 62.8195 19.714 63.7215 18.9H63.8095L64.0515 20H66.8235V13.796C66.8235 10.364 65.2395 8.802 62.4235 8.802C60.7075 8.802 59.1455 9.352 57.7155 10.232L58.9035 12.432C60.0035 11.816 60.8835 11.508 61.7635 11.508C62.8855 11.508 63.3475 12.036 63.4355 12.938C59.1235 13.378 57.3415 14.632 57.3415 16.942C57.3415 18.768 58.5955 20.264 60.5975 20.264ZM61.7635 17.624C61.0155 17.624 60.5975 17.316 60.5975 16.678C60.5975 15.908 61.2575 15.314 63.4355 15.028V16.766C62.9075 17.294 62.4455 17.624 61.7635 17.624ZM69.4915 20H72.8795V12.674C73.5615 12.058 74.0235 11.684 74.7935 11.684C75.6735 11.684 76.0695 12.146 76.0695 13.664V20H79.4795V13.224C79.4795 10.496 78.4675 8.802 76.0915 8.802C74.5955 8.802 73.4955 9.55 72.5935 10.43H72.5055L72.2635 9.066H69.4915V20ZM83.4878 24.224C86.1058 24.224 87.2718 22.838 88.3498 20.022L92.1118 9.066H88.8558L87.6018 13.598C87.3158 14.632 87.0958 15.666 86.8538 16.7H86.7658C86.4798 15.622 86.2378 14.61 85.9298 13.598L84.4338 9.066H81.0238L85.2258 19.692L85.0718 20.22C84.8078 21.012 84.2798 21.562 83.2238 21.562C83.0038 21.562 82.8498 21.54 82.4978 21.452L81.9038 23.96C82.3438 24.136 82.7838 24.224 83.4878 24.224Z" fill="white"/>
<path d="M3.672 74.412C4.086 73.098 4.464 71.802 4.824 70.434H4.896C5.274 71.802 5.652 73.098 6.084 74.412L6.642 76.194H3.114L3.672 74.412ZM0.054 81H1.584L2.718 77.418H7.02L8.136 81H9.738L5.76 69.192H4.032L0.054 81ZM15.137 81.216C17.135 81.216 18.935 79.47 18.935 76.482C18.935 73.782 17.711 72.036 15.461 72.036C14.489 72.036 13.517 72.558 12.707 73.242L12.761 71.676V68.184H11.267V81H12.455L12.599 80.1H12.653C13.427 80.802 14.327 81.216 15.137 81.216ZM14.885 79.956C14.309 79.956 13.517 79.722 12.761 79.056V74.484C13.589 73.692 14.345 73.296 15.083 73.296C16.721 73.296 17.387 74.574 17.387 76.5C17.387 78.66 16.325 79.956 14.885 79.956ZM24.6358 81.216C26.7778 81.216 28.7038 79.542 28.7038 76.644C28.7038 73.71 26.7778 72.036 24.6358 72.036C22.4938 72.036 20.5858 73.71 20.5858 76.644C20.5858 79.542 22.4938 81.216 24.6358 81.216ZM24.6358 79.974C23.1418 79.974 22.1338 78.642 22.1338 76.644C22.1338 74.628 23.1418 73.278 24.6358 73.278C26.1478 73.278 27.1558 74.628 27.1558 76.644C27.1558 78.642 26.1478 79.974 24.6358 79.974ZM33.5457 81.216C34.7517 81.216 35.6157 80.586 36.4257 79.632H36.4797L36.6057 81H37.8297V72.252H36.3357V78.444C35.5257 79.47 34.8957 79.92 34.0137 79.92C32.8617 79.92 32.3577 79.218 32.3577 77.598V72.252H30.8637V77.796C30.8637 80.028 31.6917 81.216 33.5457 81.216ZM43.5347 81.216C44.1287 81.216 44.7227 81.054 45.1907 80.838L44.8847 79.776C44.5247 79.938 44.2007 79.992 43.8767 79.992C42.8867 79.992 42.5267 79.38 42.5267 78.318V73.458H44.9027V72.252H42.5267V69.444H41.2847L41.1047 72.252L39.7367 72.342V73.458H41.0327V78.282C41.0327 80.028 41.6627 81.216 43.5347 81.216ZM53.0398 81.216C54.2458 81.216 55.1098 80.586 55.9198 79.632H55.9738L56.0998 81H57.3238V72.252H55.8298V78.444C55.0198 79.47 54.3898 79.92 53.5078 79.92C52.3558 79.92 51.8518 79.218 51.8518 77.598V72.252H50.3578V77.796C50.3578 80.028 51.1858 81.216 53.0398 81.216ZM62.5608 81.216C64.6308 81.216 65.7648 80.028 65.7648 78.606C65.7648 77.022 64.4508 76.428 63.0828 75.942C61.9848 75.564 61.2288 75.24 61.2288 74.448C61.2288 73.8 61.7148 73.188 62.8308 73.188C63.6048 73.188 64.2348 73.44 64.8468 73.89L65.5308 73.026C64.8468 72.45 63.9108 72.036 62.8128 72.036C60.9048 72.036 59.7888 73.116 59.7888 74.52C59.7888 75.96 61.0488 76.59 62.3628 77.058C63.3528 77.418 64.3248 77.796 64.3248 78.696C64.3248 79.452 63.7668 80.046 62.6148 80.046C61.5348 80.046 60.7428 79.722 59.9868 79.092L59.3028 79.956C60.1128 80.748 61.2828 81.216 62.5608 81.216Z" fill="#F5F5F5"/>
<path d="M4.068 115H5.58V104.47H9.162V103.192H0.504V104.47H4.068V115ZM13.4591 115.216C14.6651 115.216 15.6011 114.856 16.3571 114.316L15.8351 113.362C15.2231 113.776 14.4851 114.01 13.6391 114.01C11.9831 114.01 10.8851 112.822 10.7591 111.022H16.6451C16.6991 110.734 16.7171 110.464 16.7171 110.14C16.7171 107.62 15.4391 106.036 13.2071 106.036C11.2091 106.036 9.28308 107.782 9.28308 110.626C9.28308 113.524 11.1191 115.216 13.4591 115.216ZM10.7591 109.87C10.9391 108.196 12.0191 107.224 13.2431 107.224C14.5751 107.224 15.3851 108.142 15.3851 109.87H10.7591ZM20.6307 115.216C21.7287 115.216 22.6827 114.658 23.5107 113.956H23.5647L23.7087 115H24.9327V109.618C24.9327 107.458 24.0147 106.036 21.8907 106.036C20.4867 106.036 19.2627 106.63 18.4527 107.17L19.0287 108.178C19.7127 107.728 20.6307 107.278 21.6387 107.278C23.0607 107.278 23.4207 108.34 23.4387 109.438C19.6947 109.852 18.0747 110.788 18.0747 112.732C18.0747 114.316 19.1727 115.216 20.6307 115.216ZM21.0447 113.992C20.1987 113.992 19.5327 113.614 19.5327 112.642C19.5327 111.508 20.4867 110.842 23.4387 110.5V112.876C22.5927 113.614 21.8907 113.992 21.0447 113.992ZM27.685 115H29.179V108.664C29.989 107.764 30.709 107.332 31.357 107.332C32.473 107.332 32.977 108.016 32.977 109.654V115H34.471V108.664C35.281 107.764 35.983 107.332 36.667 107.332C37.765 107.332 38.287 108.016 38.287 109.654V115H39.781V109.456C39.781 107.224 38.917 106.036 37.117 106.036C36.055 106.036 35.137 106.72 34.237 107.692C33.877 106.666 33.157 106.036 31.807 106.036C30.763 106.036 29.863 106.684 29.089 107.512H29.035L28.909 106.252H27.685V115Z" fill="#F5F5F5"/>
<path d="M6.084 149.216C7.596 149.216 8.748 148.604 9.702 147.506L8.874 146.606C8.118 147.434 7.272 147.884 6.138 147.884C3.906 147.884 2.502 146.03 2.502 143.06C2.502 140.126 3.978 138.308 6.192 138.308C7.2 138.308 7.974 138.722 8.604 139.37L9.432 138.434C8.73 137.66 7.614 136.976 6.174 136.976C3.168 136.976 0.936 139.298 0.936 143.096C0.936 146.948 3.132 149.216 6.084 149.216ZM13.7752 149.216C14.8732 149.216 15.8272 148.658 16.6552 147.956H16.7092L16.8532 149H18.0772V143.618C18.0772 141.458 17.1592 140.036 15.0352 140.036C13.6312 140.036 12.4072 140.63 11.5972 141.17L12.1732 142.178C12.8572 141.728 13.7752 141.278 14.7832 141.278C16.2052 141.278 16.5652 142.34 16.5832 143.438C12.8392 143.852 11.2192 144.788 11.2192 146.732C11.2192 148.316 12.3172 149.216 13.7752 149.216ZM14.1892 147.992C13.3432 147.992 12.6772 147.614 12.6772 146.642C12.6772 145.508 13.6312 144.842 16.5832 144.5V146.876C15.7372 147.614 15.0352 147.992 14.1892 147.992ZM20.8295 149H22.3235V143.384C22.9175 141.908 23.7995 141.386 24.5375 141.386C24.8795 141.386 25.0775 141.422 25.3295 141.494L25.6535 140.216C25.3835 140.09 25.1135 140.036 24.7175 140.036C23.7455 140.036 22.8455 140.738 22.2335 141.836H22.1795L22.0535 140.252H20.8295V149ZM30.4395 149.216C31.6455 149.216 32.5815 148.856 33.3375 148.316L32.8155 147.362C32.2035 147.776 31.4655 148.01 30.6195 148.01C28.9635 148.01 27.8655 146.822 27.7395 145.022H33.6255C33.6795 144.734 33.6975 144.464 33.6975 144.14C33.6975 141.62 32.4195 140.036 30.1875 140.036C28.1895 140.036 26.2635 141.782 26.2635 144.626C26.2635 147.524 28.0995 149.216 30.4395 149.216ZM27.7395 143.87C27.9195 142.196 28.9995 141.224 30.2235 141.224C31.5555 141.224 32.3655 142.142 32.3655 143.87H27.7395ZM39.3692 149.216C40.5752 149.216 41.5112 148.856 42.2672 148.316L41.7452 147.362C41.1332 147.776 40.3952 148.01 39.5492 148.01C37.8932 148.01 36.7952 146.822 36.6692 145.022H42.5552C42.6092 144.734 42.6272 144.464 42.6272 144.14C42.6272 141.62 41.3492 140.036 39.1172 140.036C37.1192 140.036 35.1932 141.782 35.1932 144.626C35.1932 147.524 37.0292 149.216 39.3692 149.216ZM36.6692 143.87C36.8492 142.196 37.9292 141.224 39.1532 141.224C40.4852 141.224 41.2952 142.142 41.2952 143.87H36.6692ZM44.7709 149H46.2649V143.384C46.8589 141.908 47.7409 141.386 48.4789 141.386C48.8209 141.386 49.0189 141.422 49.2709 141.494L49.5949 140.216C49.3249 140.09 49.0549 140.036 48.6589 140.036C47.6869 140.036 46.7869 140.738 46.1749 141.836H46.1209L45.9949 140.252H44.7709V149ZM53.2444 149.216C55.3144 149.216 56.4484 148.028 56.4484 146.606C56.4484 145.022 55.1344 144.428 53.7664 143.942C52.6684 143.564 51.9124 143.24 51.9124 142.448C51.9124 141.8 52.3984 141.188 53.5144 141.188C54.2884 141.188 54.9184 141.44 55.5304 141.89L56.2144 141.026C55.5304 140.45 54.5944 140.036 53.4964 140.036C51.5884 140.036 50.4724 141.116 50.4724 142.52C50.4724 143.96 51.7324 144.59 53.0464 145.058C54.0364 145.418 55.0084 145.796 55.0084 146.696C55.0084 147.452 54.4504 148.046 53.2984 148.046C52.2184 148.046 51.4264 147.722 50.6704 147.092L49.9864 147.956C50.7964 148.748 51.9664 149.216 53.2444 149.216Z" fill="#F5F5F5"/>
<path d="M1.62 183H5.4C8.028 183 9.864 181.866 9.864 179.544C9.864 177.924 8.874 176.988 7.47 176.718V176.646C8.568 176.286 9.198 175.242 9.198 174.072C9.198 172.002 7.524 171.192 5.13 171.192H1.62V183ZM3.132 176.214V172.398H4.932C6.768 172.398 7.704 172.902 7.704 174.27C7.704 175.476 6.876 176.214 4.878 176.214H3.132ZM3.132 181.794V177.366H5.184C7.236 177.366 8.37 178.032 8.37 179.49C8.37 181.074 7.2 181.794 5.184 181.794H3.132ZM13.624 183.216C14.002 183.216 14.272 183.162 14.488 183.054L14.29 181.938C14.146 181.974 14.074 181.974 13.984 181.974C13.75 181.974 13.552 181.812 13.552 181.344V170.184H12.058V181.236C12.058 182.496 12.508 183.216 13.624 183.216ZM20.0479 183.216C22.1899 183.216 24.1159 181.542 24.1159 178.644C24.1159 175.71 22.1899 174.036 20.0479 174.036C17.9059 174.036 15.9979 175.71 15.9979 178.644C15.9979 181.542 17.9059 183.216 20.0479 183.216ZM20.0479 181.974C18.5539 181.974 17.5459 180.642 17.5459 178.644C17.5459 176.628 18.5539 175.278 20.0479 175.278C21.5599 175.278 22.5679 176.628 22.5679 178.644C22.5679 180.642 21.5599 181.974 20.0479 181.974ZM29.3538 187.032C32.0718 187.032 33.7818 185.628 33.7818 183.99C33.7818 182.55 32.7558 181.902 30.7218 181.902H29.0298C27.8598 181.902 27.4998 181.506 27.4998 180.966C27.4998 180.48 27.7338 180.192 28.0578 179.922C28.4538 180.12 28.9218 180.228 29.3538 180.228C31.1358 180.228 32.5578 179.058 32.5578 177.186C32.5578 176.448 32.2698 175.8 31.8558 175.404H33.6378V174.252H30.5958C30.2718 174.126 29.8398 174.036 29.3538 174.036C27.5718 174.036 26.0598 175.242 26.0598 177.15C26.0598 178.194 26.6178 179.04 27.1938 179.508V179.58C26.7438 179.886 26.2398 180.462 26.2398 181.2C26.2398 181.884 26.5818 182.352 27.0138 182.622V182.694C26.2218 183.234 25.7358 183.936 25.7358 184.674C25.7358 186.186 27.2118 187.032 29.3538 187.032ZM29.3538 179.22C28.3458 179.22 27.4998 178.428 27.4998 177.15C27.4998 175.872 28.3278 175.116 29.3538 175.116C30.3798 175.116 31.2078 175.89 31.2078 177.15C31.2078 178.428 30.3618 179.22 29.3538 179.22ZM29.5698 185.988C27.9858 185.988 27.0318 185.412 27.0318 184.476C27.0318 183.972 27.3018 183.45 27.9318 183C28.3098 183.108 28.7238 183.144 29.0658 183.144H30.5598C31.7118 183.144 32.3238 183.414 32.3238 184.224C32.3238 185.124 31.2258 185.988 29.5698 185.988Z" fill="#F5F5F5"/>
</svg>
