<svg width="104" height="156" viewBox="0 0 104 156" fill="none" xmlns="http://www.w3.org/2000/svg">
<path d="M4.896 15.216C7.38 15.216 8.928 13.722 8.928 11.85C8.928 10.104 7.866 9.276 6.498 8.7L4.806 7.962C3.888 7.584 2.862 7.152 2.862 6.018C2.862 4.974 3.726 4.308 5.04 4.308C6.066 4.308 6.984 4.722 7.704 5.406L8.532 4.398C7.704 3.57 6.48 2.976 5.04 2.976C2.898 2.976 1.332 4.308 1.332 6.108C1.332 7.854 2.61 8.682 3.708 9.15L5.418 9.906C6.516 10.392 7.38 10.77 7.38 11.976C7.38 13.11 6.462 13.884 4.914 13.884C3.672 13.884 2.466 13.344 1.602 12.462L0.756 13.452C1.782 14.55 3.204 15.216 4.896 15.216ZM13.1072 15.216C14.2052 15.216 15.1592 14.658 15.9872 13.956H16.0412L16.1852 15H17.4092V9.618C17.4092 7.458 16.4912 6.036 14.3672 6.036C12.9632 6.036 11.7392 6.63 10.9292 7.17L11.5052 8.178C12.1892 7.728 13.1072 7.278 14.1152 7.278C15.5372 7.278 15.8972 8.34 15.9152 9.438C12.1712 9.852 10.5512 10.788 10.5512 12.732C10.5512 14.316 11.6492 15.216 13.1072 15.216ZM13.5212 13.992C12.6752 13.992 12.0092 13.614 12.0092 12.642C12.0092 11.508 12.9632 10.842 15.9152 10.5V12.876C15.0692 13.614 14.3672 13.992 13.5212 13.992ZM20.1615 15H21.6555V8.664C22.5195 7.782 23.1495 7.332 24.0315 7.332C25.1835 7.332 25.6875 8.016 25.6875 9.654V15H27.1815V9.456C27.1815 7.224 26.3535 6.036 24.4995 6.036C23.2935 6.036 22.3935 6.684 21.5655 7.512H21.5115L21.3855 6.252H20.1615V15ZM33.7528 15H35.2648V9.726H39.7648V8.448H35.2648V4.47H40.5568V3.192H33.7528V15ZM42.1694 15H43.6634V9.384C44.2574 7.908 45.1394 7.386 45.8774 7.386C46.2194 7.386 46.4174 7.422 46.6694 7.494L46.9934 6.216C46.7234 6.09 46.4534 6.036 46.0574 6.036C45.0854 6.036 44.1854 6.738 43.5734 7.836H43.5194L43.3934 6.252H42.1694V15ZM50.0037 15.216C51.1017 15.216 52.0557 14.658 52.8837 13.956H52.9377L53.0817 15H54.3057V9.618C54.3057 7.458 53.3877 6.036 51.2637 6.036C49.8597 6.036 48.6357 6.63 47.8257 7.17L48.4017 8.178C49.0857 7.728 50.0037 7.278 51.0117 7.278C52.4337 7.278 52.7937 8.34 52.8117 9.438C49.0677 9.852 47.4477 10.788 47.4477 12.732C47.4477 14.316 48.5457 15.216 50.0037 15.216ZM50.4177 13.992C49.5717 13.992 48.9057 13.614 48.9057 12.642C48.9057 11.508 49.8597 10.842 52.8117 10.5V12.876C51.9657 13.614 51.2637 13.992 50.4177 13.992ZM57.058 15H58.552V8.664C59.416 7.782 60.046 7.332 60.928 7.332C62.08 7.332 62.584 8.016 62.584 9.654V15H64.078V9.456C64.078 7.224 63.25 6.036 61.396 6.036C60.19 6.036 59.29 6.684 58.462 7.512H58.408L58.282 6.252H57.058V15ZM70.3578 15.216C71.4018 15.216 72.3918 14.82 73.1838 14.1L72.5358 13.146C72.0138 13.614 71.2938 13.974 70.4838 13.974C68.8818 13.974 67.8018 12.642 67.8018 10.644C67.8018 8.628 68.9538 7.278 70.5378 7.278C71.2398 7.278 71.7978 7.548 72.2838 7.998L73.0218 7.062C72.4098 6.486 71.6178 6.036 70.4658 6.036C68.2158 6.036 66.2538 7.71 66.2538 10.644C66.2538 13.542 68.0358 15.216 70.3578 15.216ZM75.1108 15H76.6048V6.252H75.1108V15ZM75.8668 4.452C76.4428 4.452 76.8568 4.074 76.8568 3.48C76.8568 2.904 76.4428 2.508 75.8668 2.508C75.2908 2.508 74.8768 2.904 74.8768 3.48C74.8768 4.074 75.2908 4.452 75.8668 4.452ZM81.844 15.216C83.914 15.216 85.048 14.028 85.048 12.606C85.048 11.022 83.734 10.428 82.366 9.942C81.268 9.564 80.512 9.24 80.512 8.448C80.512 7.8 80.998 7.188 82.114 7.188C82.888 7.188 83.518 7.44 84.13 7.89L84.814 7.026C84.13 6.45 83.194 6.036 82.096 6.036C80.188 6.036 79.072 7.116 79.072 8.52C79.072 9.96 80.332 10.59 81.646 11.058C82.636 11.418 83.608 11.796 83.608 12.696C83.608 13.452 83.05 14.046 81.898 14.046C80.818 14.046 80.026 13.722 79.27 13.092L78.586 13.956C79.396 14.748 80.566 15.216 81.844 15.216ZM90.555 15.216C91.599 15.216 92.589 14.82 93.381 14.1L92.733 13.146C92.211 13.614 91.491 13.974 90.681 13.974C89.079 13.974 87.999 12.642 87.999 10.644C87.999 8.628 89.151 7.278 90.735 7.278C91.437 7.278 91.995 7.548 92.481 7.998L93.219 7.062C92.607 6.486 91.815 6.036 90.663 6.036C88.413 6.036 86.451 7.71 86.451 10.644C86.451 13.542 88.233 15.216 90.555 15.216ZM98.3233 15.216C100.465 15.216 102.391 13.542 102.391 10.644C102.391 7.71 100.465 6.036 98.3233 6.036C96.1813 6.036 94.2733 7.71 94.2733 10.644C94.2733 13.542 96.1813 15.216 98.3233 15.216ZM98.3233 13.974C96.8293 13.974 95.8213 12.642 95.8213 10.644C95.8213 8.628 96.8293 7.278 98.3233 7.278C99.8353 7.278 100.843 8.628 100.843 10.644C100.843 12.642 99.8353 13.974 98.3233 13.974Z" fill="#F5F5F5"/>
<path d="M1.602 49H2.988V42.484C2.988 41.44 2.862 39.982 2.772 38.956H2.844L3.78 41.71L5.976 47.812H7.074L9.288 41.71L10.206 38.956H10.278C10.188 39.982 10.062 41.44 10.062 42.484V49H11.484V37.192H9.594L7.362 43.51C7.074 44.338 6.858 45.094 6.588 45.976H6.516C6.264 45.094 6.012 44.338 5.724 43.51L3.492 37.192H1.602V49ZM14.5541 49H16.0481V40.252H14.5541V49ZM15.3101 38.452C15.8861 38.452 16.3001 38.074 16.3001 37.48C16.3001 36.904 15.8861 36.508 15.3101 36.508C14.7341 36.508 14.3201 36.904 14.3201 37.48C14.3201 38.074 14.7341 38.452 15.3101 38.452ZM21.0174 49.216C22.1154 49.216 23.0694 48.658 23.8974 47.956H23.9514L24.0954 49H25.3194V43.618C25.3194 41.458 24.4014 40.036 22.2774 40.036C20.8734 40.036 19.6494 40.63 18.8394 41.17L19.4154 42.178C20.0994 41.728 21.0174 41.278 22.0254 41.278C23.4474 41.278 23.8074 42.34 23.8254 43.438C20.0814 43.852 18.4614 44.788 18.4614 46.732C18.4614 48.316 19.5594 49.216 21.0174 49.216ZM21.4314 47.992C20.5854 47.992 19.9194 47.614 19.9194 46.642C19.9194 45.508 20.8734 44.842 23.8254 44.5V46.876C22.9794 47.614 22.2774 47.992 21.4314 47.992ZM28.0717 49H29.5657V42.664C30.3757 41.764 31.0957 41.332 31.7437 41.332C32.8597 41.332 33.3637 42.016 33.3637 43.654V49H34.8577V42.664C35.6677 41.764 36.3697 41.332 37.0537 41.332C38.1517 41.332 38.6737 42.016 38.6737 43.654V49H40.1677V43.456C40.1677 41.224 39.3037 40.036 37.5037 40.036C36.4417 40.036 35.5237 40.72 34.6237 41.692C34.2637 40.666 33.5437 40.036 32.1937 40.036C31.1497 40.036 30.2497 40.684 29.4757 41.512H29.4217L29.2957 40.252H28.0717V49ZM42.9955 49H44.4895V40.252H42.9955V49ZM43.7515 38.452C44.3275 38.452 44.7415 38.074 44.7415 37.48C44.7415 36.904 44.3275 36.508 43.7515 36.508C43.1755 36.508 42.7615 36.904 42.7615 37.48C42.7615 38.074 43.1755 38.452 43.7515 38.452Z" fill="#F5F5F5"/>
<path d="M4.896 83.216C7.38 83.216 8.928 81.722 8.928 79.85C8.928 78.104 7.866 77.276 6.498 76.7L4.806 75.962C3.888 75.584 2.862 75.152 2.862 74.018C2.862 72.974 3.726 72.308 5.04 72.308C6.066 72.308 6.984 72.722 7.704 73.406L8.532 72.398C7.704 71.57 6.48 70.976 5.04 70.976C2.898 70.976 1.332 72.308 1.332 74.108C1.332 75.854 2.61 76.682 3.708 77.15L5.418 77.906C6.516 78.392 7.38 78.77 7.38 79.976C7.38 81.11 6.462 81.884 4.914 81.884C3.672 81.884 2.466 81.344 1.602 80.462L0.756 81.452C1.782 82.55 3.204 83.216 4.896 83.216ZM13.1072 83.216C14.2052 83.216 15.1592 82.658 15.9872 81.956H16.0412L16.1852 83H17.4092V77.618C17.4092 75.458 16.4912 74.036 14.3672 74.036C12.9632 74.036 11.7392 74.63 10.9292 75.17L11.5052 76.178C12.1892 75.728 13.1072 75.278 14.1152 75.278C15.5372 75.278 15.8972 76.34 15.9152 77.438C12.1712 77.852 10.5512 78.788 10.5512 80.732C10.5512 82.316 11.6492 83.216 13.1072 83.216ZM13.5212 81.992C12.6752 81.992 12.0092 81.614 12.0092 80.642C12.0092 79.508 12.9632 78.842 15.9152 78.5V80.876C15.0692 81.614 14.3672 81.992 13.5212 81.992ZM20.1615 83H21.6555V76.664C22.5195 75.782 23.1495 75.332 24.0315 75.332C25.1835 75.332 25.6875 76.016 25.6875 77.654V83H27.1815V77.456C27.1815 75.224 26.3535 74.036 24.4995 74.036C23.2935 74.036 22.3935 74.684 21.5655 75.512H21.5115L21.3855 74.252H20.1615V83ZM33.7528 83H36.7768C40.3408 83 42.2848 80.804 42.2848 77.042C42.2848 73.298 40.3408 71.192 36.7048 71.192H33.7528V83ZM35.2648 81.758V72.434H36.5968C39.3508 72.434 40.7188 74.072 40.7188 77.042C40.7188 80.03 39.3508 81.758 36.5968 81.758H35.2648ZM44.7006 83H46.1946V74.252H44.7006V83ZM45.4566 72.452C46.0326 72.452 46.4466 72.074 46.4466 71.48C46.4466 70.904 46.0326 70.508 45.4566 70.508C44.8806 70.508 44.4666 70.904 44.4666 71.48C44.4666 72.074 44.8806 72.452 45.4566 72.452ZM52.6759 83.216C53.8819 83.216 54.8179 82.856 55.5739 82.316L55.0519 81.362C54.4399 81.776 53.7019 82.01 52.8559 82.01C51.1999 82.01 50.1019 80.822 49.9759 79.022H55.8619C55.9159 78.734 55.9339 78.464 55.9339 78.14C55.9339 75.62 54.6559 74.036 52.4239 74.036C50.4259 74.036 48.4999 75.782 48.4999 78.626C48.4999 81.524 50.3359 83.216 52.6759 83.216ZM49.9759 77.87C50.1559 76.196 51.2359 75.224 52.4599 75.224C53.7919 75.224 54.6019 76.142 54.6019 77.87H49.9759ZM60.8538 87.032C63.5718 87.032 65.2818 85.628 65.2818 83.99C65.2818 82.55 64.2558 81.902 62.2218 81.902H60.5298C59.3598 81.902 58.9998 81.506 58.9998 80.966C58.9998 80.48 59.2338 80.192 59.5578 79.922C59.9538 80.12 60.4218 80.228 60.8538 80.228C62.6358 80.228 64.0578 79.058 64.0578 77.186C64.0578 76.448 63.7698 75.8 63.3558 75.404H65.1378V74.252H62.0958C61.7718 74.126 61.3398 74.036 60.8538 74.036C59.0718 74.036 57.5598 75.242 57.5598 77.15C57.5598 78.194 58.1178 79.04 58.6938 79.508V79.58C58.2438 79.886 57.7398 80.462 57.7398 81.2C57.7398 81.884 58.0818 82.352 58.5138 82.622V82.694C57.7218 83.234 57.2358 83.936 57.2358 84.674C57.2358 86.186 58.7118 87.032 60.8538 87.032ZM60.8538 79.22C59.8458 79.22 58.9998 78.428 58.9998 77.15C58.9998 75.872 59.8278 75.116 60.8538 75.116C61.8798 75.116 62.7078 75.89 62.7078 77.15C62.7078 78.428 61.8618 79.22 60.8538 79.22ZM61.0698 85.988C59.4858 85.988 58.5318 85.412 58.5318 84.476C58.5318 83.972 58.8018 83.45 59.4318 83C59.8098 83.108 60.2238 83.144 60.5658 83.144H62.0598C63.2118 83.144 63.8238 83.414 63.8238 84.224C63.8238 85.124 62.7258 85.988 61.0698 85.988ZM70.1456 83.216C72.2876 83.216 74.2136 81.542 74.2136 78.644C74.2136 75.71 72.2876 74.036 70.1456 74.036C68.0036 74.036 66.0956 75.71 66.0956 78.644C66.0956 81.542 68.0036 83.216 70.1456 83.216ZM70.1456 81.974C68.6516 81.974 67.6436 80.642 67.6436 78.644C67.6436 76.628 68.6516 75.278 70.1456 75.278C71.6576 75.278 72.6656 76.628 72.6656 78.644C72.6656 80.642 71.6576 81.974 70.1456 81.974Z" fill="#F5F5F5"/>
<path d="M1.62 117H8.604V115.722H3.132V111.438H7.596V110.16H3.132V106.47H8.424V105.192H1.62V117ZM12.9842 117.216C14.0822 117.216 15.0362 116.658 15.8642 115.956H15.9182L16.0622 117H17.2862V111.618C17.2862 109.458 16.3682 108.036 14.2442 108.036C12.8402 108.036 11.6162 108.63 10.8062 109.17L11.3822 110.178C12.0662 109.728 12.9842 109.278 13.9922 109.278C15.4142 109.278 15.7742 110.34 15.7922 111.438C12.0482 111.852 10.4282 112.788 10.4282 114.732C10.4282 116.316 11.5262 117.216 12.9842 117.216ZM13.3982 115.992C12.5522 115.992 11.8862 115.614 11.8862 114.642C11.8862 113.508 12.8402 112.842 15.7922 112.5V114.876C14.9462 115.614 14.2442 115.992 13.3982 115.992ZM22.3245 117.216C24.3945 117.216 25.5285 116.028 25.5285 114.606C25.5285 113.022 24.2145 112.428 22.8465 111.942C21.7485 111.564 20.9925 111.24 20.9925 110.448C20.9925 109.8 21.4785 109.188 22.5945 109.188C23.3685 109.188 23.9985 109.44 24.6105 109.89L25.2945 109.026C24.6105 108.45 23.6745 108.036 22.5765 108.036C20.6685 108.036 19.5525 109.116 19.5525 110.52C19.5525 111.96 20.8125 112.59 22.1265 113.058C23.1165 113.418 24.0885 113.796 24.0885 114.696C24.0885 115.452 23.5305 116.046 22.3785 116.046C21.2985 116.046 20.5065 115.722 19.7505 115.092L19.0665 115.956C19.8765 116.748 21.0465 117.216 22.3245 117.216ZM29.982 117.216C30.576 117.216 31.17 117.054 31.638 116.838L31.332 115.776C30.972 115.938 30.648 115.992 30.324 115.992C29.334 115.992 28.974 115.38 28.974 114.318V109.458H31.35V108.252H28.974V105.444H27.732L27.552 108.252L26.184 108.342V109.458H27.48V114.282C27.48 116.028 28.11 117.216 29.982 117.216ZM37.0751 117H40.8551C43.4831 117 45.3191 115.866 45.3191 113.544C45.3191 111.924 44.3291 110.988 42.9251 110.718V110.646C44.0231 110.286 44.6531 109.242 44.6531 108.072C44.6531 106.002 42.9791 105.192 40.5851 105.192H37.0751V117ZM38.5871 110.214V106.398H40.3871C42.2231 106.398 43.1591 106.902 43.1591 108.27C43.1591 109.476 42.3311 110.214 40.3331 110.214H38.5871ZM38.5871 115.794V111.366H40.6391C42.6911 111.366 43.8251 112.032 43.8251 113.49C43.8251 115.074 42.6551 115.794 40.6391 115.794H38.5871ZM49.5291 117.216C50.6271 117.216 51.5811 116.658 52.4091 115.956H52.4631L52.6071 117H53.8311V111.618C53.8311 109.458 52.9131 108.036 50.7891 108.036C49.3851 108.036 48.1611 108.63 47.3511 109.17L47.9271 110.178C48.6111 109.728 49.5291 109.278 50.5371 109.278C51.9591 109.278 52.3191 110.34 52.3371 111.438C48.5931 111.852 46.9731 112.788 46.9731 114.732C46.9731 116.316 48.0711 117.216 49.5291 117.216ZM49.9431 115.992C49.0971 115.992 48.4311 115.614 48.4311 114.642C48.4311 113.508 49.3851 112.842 52.3371 112.5V114.876C51.4911 115.614 50.7891 115.992 49.9431 115.992ZM56.7454 120.762C58.4914 120.762 59.4094 119.448 60.0214 117.72L63.3154 108.252H61.8574L60.2914 113.076C60.0574 113.85 59.8054 114.75 59.5714 115.542H59.4994C59.2114 114.732 58.9234 113.832 58.6354 113.076L56.8714 108.252H55.3234L58.8334 117.018L58.6354 117.666C58.2754 118.746 57.6454 119.52 56.6734 119.52C56.4574 119.52 56.2414 119.484 56.0254 119.412L55.7014 120.582C55.9894 120.69 56.3314 120.762 56.7454 120.762Z" fill="#F5F5F5"/>
<path d="M1.62 151H8.28V149.722H3.132V139.192H1.62V151ZM13.421 151.216C15.563 151.216 17.489 149.542 17.489 146.644C17.489 143.71 15.563 142.036 13.421 142.036C11.279 142.036 9.37097 143.71 9.37097 146.644C9.37097 149.542 11.279 151.216 13.421 151.216ZM13.421 149.974C11.927 149.974 10.919 148.642 10.919 146.644C10.919 144.628 11.927 143.278 13.421 143.278C14.933 143.278 15.941 144.628 15.941 146.644C15.941 148.642 14.933 149.974 13.421 149.974ZM19.7748 151H21.2688V144.664C22.1328 143.782 22.7628 143.332 23.6448 143.332C24.7968 143.332 25.3008 144.016 25.3008 145.654V151H26.7948V145.456C26.7948 143.224 25.9668 142.036 24.1128 142.036C22.9068 142.036 22.0068 142.684 21.1788 143.512H21.1248L20.9988 142.252H19.7748V151ZM32.5706 155.032C35.2886 155.032 36.9986 153.628 36.9986 151.99C36.9986 150.55 35.9726 149.902 33.9386 149.902H32.2466C31.0766 149.902 30.7166 149.506 30.7166 148.966C30.7166 148.48 30.9506 148.192 31.2746 147.922C31.6706 148.12 32.1386 148.228 32.5706 148.228C34.3526 148.228 35.7746 147.058 35.7746 145.186C35.7746 144.448 35.4866 143.8 35.0726 143.404H36.8546V142.252H33.8126C33.4886 142.126 33.0566 142.036 32.5706 142.036C30.7886 142.036 29.2766 143.242 29.2766 145.15C29.2766 146.194 29.8346 147.04 30.4106 147.508V147.58C29.9606 147.886 29.4566 148.462 29.4566 149.2C29.4566 149.884 29.7986 150.352 30.2306 150.622V150.694C29.4386 151.234 28.9526 151.936 28.9526 152.674C28.9526 154.186 30.4286 155.032 32.5706 155.032ZM32.5706 147.22C31.5626 147.22 30.7166 146.428 30.7166 145.15C30.7166 143.872 31.5446 143.116 32.5706 143.116C33.5966 143.116 34.4246 143.89 34.4246 145.15C34.4246 146.428 33.5786 147.22 32.5706 147.22ZM32.7866 153.988C31.2026 153.988 30.2486 153.412 30.2486 152.476C30.2486 151.972 30.5186 151.45 31.1486 151C31.5266 151.108 31.9406 151.144 32.2826 151.144H33.7766C34.9286 151.144 35.5406 151.414 35.5406 152.224C35.5406 153.124 34.4426 153.988 32.7866 153.988ZM42.454 151H46.234C48.862 151 50.698 149.866 50.698 147.544C50.698 145.924 49.708 144.988 48.304 144.718V144.646C49.402 144.286 50.032 143.242 50.032 142.072C50.032 140.002 48.358 139.192 45.964 139.192H42.454V151ZM43.966 144.214V140.398H45.766C47.602 140.398 48.538 140.902 48.538 142.27C48.538 143.476 47.71 144.214 45.712 144.214H43.966ZM43.966 149.794V145.366H46.018C48.07 145.366 49.204 146.032 49.204 147.49C49.204 149.074 48.034 149.794 46.018 149.794H43.966ZM56.42 151.216C57.626 151.216 58.562 150.856 59.318 150.316L58.796 149.362C58.184 149.776 57.446 150.01 56.6 150.01C54.944 150.01 53.846 148.822 53.72 147.022H59.606C59.66 146.734 59.678 146.464 59.678 146.14C59.678 143.62 58.4 142.036 56.168 142.036C54.17 142.036 52.244 143.782 52.244 146.626C52.244 149.524 54.08 151.216 56.42 151.216ZM53.72 145.87C53.9 144.196 54.98 143.224 56.204 143.224C57.536 143.224 58.346 144.142 58.346 145.87H53.72ZM63.5916 151.216C64.6896 151.216 65.6436 150.658 66.4716 149.956H66.5256L66.6696 151H67.8936V145.618C67.8936 143.458 66.9756 142.036 64.8516 142.036C63.4476 142.036 62.2236 142.63 61.4136 143.17L61.9896 144.178C62.6736 143.728 63.5916 143.278 64.5996 143.278C66.0216 143.278 66.3816 144.34 66.3996 145.438C62.6556 145.852 61.0356 146.788 61.0356 148.732C61.0356 150.316 62.1336 151.216 63.5916 151.216ZM64.0056 149.992C63.1596 149.992 62.4936 149.614 62.4936 148.642C62.4936 147.508 63.4476 146.842 66.3996 146.5V148.876C65.5536 149.614 64.8516 149.992 64.0056 149.992ZM74.1019 151.216C75.1459 151.216 76.1359 150.82 76.9279 150.1L76.2799 149.146C75.7579 149.614 75.0379 149.974 74.2279 149.974C72.6259 149.974 71.5459 148.642 71.5459 146.644C71.5459 144.628 72.6979 143.278 74.2819 143.278C74.9839 143.278 75.5419 143.548 76.0279 143.998L76.7659 143.062C76.1539 142.486 75.3619 142.036 74.2099 142.036C71.9599 142.036 69.9979 143.71 69.9979 146.644C69.9979 149.542 71.7799 151.216 74.1019 151.216ZM78.8549 151H80.3489V144.664C81.2129 143.782 81.8429 143.332 82.7249 143.332C83.8769 143.332 84.3809 144.016 84.3809 145.654V151H85.8749V145.456C85.8749 143.224 85.0469 142.036 83.1929 142.036C81.9869 142.036 81.1049 142.684 80.2949 143.476L80.3489 141.676V138.184H78.8549V151Z" fill="#F5F5F5"/>
</svg>
